HIERARCHY
ROOT Hips
{
	OFFSET 0.00000 0.00000 0.00000
	CHANNELS 6 Xposition Yposition Zposition Zrotation Yrotation Xrotation 
	JOINT LHipJoint
	{
		OFFSET 0 0 0
		CHANNELS 3 Zrotation Yrotation Xrotation
		JOINT LeftHip
		{
			OFFSET 1.51378 -1.89840 0.47569
			CHANNELS 3 Zrotation Yrotation Xrotation
			JOINT LeftKnee
			{
				OFFSET 2.53380 -6.96157 0.00000
				CHANNELS 3 Zrotation Yrotation Xrotation
				JOINT LeftAnkle
				{
					OFFSET 2.74874 -7.55212 0.00000
					CHANNELS 3 Zrotation Yrotation Xrotation
					JOINT LeftToe
					{
						OFFSET 0.18263 -0.50178 1.99677
						CHANNELS 3 Zrotation Yrotation Xrotation
						End Site
						{
							OFFSET 0.00000 -0.00000 1.03711
						}
					}
				}
			}
		}
	}
	JOINT RHipJoint
	{
		OFFSET 0 0 0
		CHANNELS 3 Zrotation Yrotation Xrotation
		JOINT RightHip
		{
			OFFSET -1.43037 -1.89840 0.47569
			CHANNELS 3 Zrotation Yrotation Xrotation
			JOINT RightKnee
			{
				OFFSET -2.69849 -7.41406 0.00000
				CHANNELS 3 Zrotation Yrotation Xrotation
				JOINT RightAnkle
				{
					OFFSET -2.69369 -7.40087 0.00000
					CHANNELS 3 Zrotation Yrotation Xrotation
					JOINT RightToe
					{
						OFFSET -0.28932 -0.79491 2.04975
						CHANNELS 3 Zrotation Yrotation Xrotation
						End Site
						{
							OFFSET 0.00009 0.00010 1.09536
						}
					}
				}
			}
		}
	}
	JOINT lowerback
	{
		OFFSET 0 0 0
		CHANNELS 3 Zrotation Yrotation Xrotation
		JOINT Chest
		{
			OFFSET 0.01912 1.94784 -0.02419
			CHANNELS 3 Zrotation Yrotation Xrotation
			JOINT Chest2
			{
				OFFSET 0.07565 1.94258 0.01909
				CHANNELS 3 Zrotation Yrotation Xrotation
				JOINT lowerneck
				{
					OFFSET 0 0 0
					CHANNELS 3 Zrotation Yrotation Xrotation
					JOINT Neck
					{
						OFFSET -0.07010 1.86195 0.18976
						CHANNELS 3 Zrotation Yrotation Xrotation
						JOINT Head
						{
							OFFSET 0.02284 1.86595 -0.31497
							CHANNELS 3 Zrotation Yrotation Xrotation
							End Site
							{
								OFFSET 0.01200 1.90122 -0.12838
							}
						}
					}
				}
				JOINT LeftCollar
				{
					OFFSET 0 0 0
					CHANNELS 3 Zrotation Yrotation Xrotation
					JOINT LeftShoulder
					{
						OFFSET 3.39189 0.96331 -0.10437
CHANNELS 3 Zrotation Xrotation Yrotation
						JOINT LeftElbow
						{
OFFSET 0 -5.148450 0.000000
CHANNELS 3 Zrotation Xrotation Yrotation
							JOINT LeftWrist
							{
OFFSET 0 -3.436740 -0.000000
CHANNELS 3 Zrotation Xrotation Yrotation
								JOINT lhand
								{
									OFFSET 0 0 0
CHANNELS 3 Zrotation Xrotation Yrotation
									JOINT LFingers
									{
OFFSET 0 -0.588710 0.000000
CHANNELS 3 Zrotation Xrotation Yrotation
										End Site
										{
OFFSET 0 -0.474630 0.000000
										}
									}
								}
								JOINT LThumb
								{
OFFSET 0 0.000000 0.000000
CHANNELS 3 Zrotation Xrotation Yrotation
									End Site
									{
OFFSET 0 -0.481880 0.481880
									}
								}
							}
						}
					}
				}
				JOINT RightCollar
				{
					OFFSET 0 0 0
					CHANNELS 3 Zrotation Yrotation Xrotation
					JOINT RightShoulder
					{
						OFFSET -3.34934 1.18831 -0.19928
CHANNELS 3 Zrotation Xrotation Yrotation
						JOINT RightElbow
						{
OFFSET 0 -5.421850 0.000000
CHANNELS 3 Zrotation Xrotation Yrotation
							JOINT RightWrist
							{
OFFSET 0 -3.513170 -0.000000
CHANNELS 3 Zrotation Xrotation Yrotation
								JOINT rhand
								{
									OFFSET 0 0 0
CHANNELS 3 Zrotation Xrotation Yrotation
									JOINT RFingers
									{
OFFSET 0 -0.663190 0.000000
CHANNELS 3 Zrotation Xrotation Yrotation
										End Site
										{
OFFSET 0 -0.534680 0.000000
										}
									}
								}
								JOINT RThumb
								{
OFFSET 0 0.000000 0.000000
CHANNELS 3 Zrotation Xrotation Yrotation
									End Site
									{
OFFSET 0 -0.542840 0.542840
									}
								}
							}
						}
					}
				}
			}
		}
	}
}
MOTION
Frames: 11
Frame Time: 0.008333333333333333
3.943000 18.179700 2.838400 -29.943200 -84.515300 38.521700 0.000000 0.000000 0.000000 -16.344900 -10.801500 -20.213200 2.558700 9.943800 28.795100 1.020100 -5.034400 -18.071400 0.330100 -3.692500 -10.213100 0.000000 0.000000 0.000000 26.918100 9.014300 -19.562600 -2.998500 -10.692600 31.250100 -1.148000 -6.769500 -23.743500 -0.071500 -1.725700 4.748100 0.151800 2.014900 0.425200 3.914600 2.625300 0.649700 3.930900 1.284800 0.251000 0.831300 3.572600 -14.302000 -0.391300 4.704500 11.929600 0.175600 2.286700 5.984200 -0.000000 -0.000000 0.000000 -3.572200 -0.006500 -26.329000 16.858600 -26.671100 4.023700 16.224000 4.256400 -24.983000 0.000000 0.000000 0.000000 -7.125000 0.000000 0.000000 -14.312600 55.289800 3.670600 -0.000000 -0.000000 0.000000 -4.208900 1.439800 10.943200 -16.735000 -26.507100 -3.968400 -26.790900 -5.470400 -10.942900 0.000000 0.000000 0.000000 7.125000 0.000000 -0.000000 0.214400 17.758400 0.138800
3.850215 18.176377 2.823277 -49.954810 -84.146695 57.028334 0.000000 0.000000 0.000000 -14.964913 -9.645621 -17.633099 2.351833 9.563412 27.574135 0.786540 -3.506150 -15.938447 0.010172 -0.650337 -1.787157 0.000000 0.000000 0.000000 29.194839 8.884033 -16.823366 -2.776084 -10.323356 30.030418 -1.127976 -6.676503 -23.516461 -0.071822 -1.725254 4.746985 1.239093 2.186826 0.452881 4.495032 2.834853 0.594339 3.917471 1.382964 0.188659 0.927221 3.515628 -13.910155 -0.420994 4.619010 12.990228 0.147642 2.239471 6.258458 0.000000 0.000000 0.000000 -3.731209 0.444589 -25.771702 16.220016 -25.818108 3.741337 15.007258 4.856197 -25.045519 0.000000 0.000000 0.000000 -7.125000 0.000000 0.000000 -15.577929 55.112836 3.938666 0.000000 0.000000 0.000000 -4.201777 1.436261 10.986121 -16.707599 -26.470670 -3.956127 -26.684958 -5.243640 -11.171492 0.000000 0.000000 0.000000 7.125000 0.000000 0.000000 0.303861 17.516244 0.198541
3.792405 18.171674 2.828817 -46.520680 -84.599736 52.967778 0.000000 0.000000 0.000000 -15.930161 -9.165489 -15.974775 2.142374 9.156622 26.286362 0.796983 -2.853849 -16.142967 0.121765 -2.249139 -6.194681 0.000000 0.000000 0.000000 28.583732 8.899254 -16.054251 -2.855193 -10.456889 30.469289 -1.314831 -5.993564 -24.575580 -0.286021 -3.438597 9.502451 0.486830 1.905498 0.159617 4.255077 2.468472 0.456718 4.101987 1.204499 0.211681 0.500649 3.590780 -13.808196 -0.835299 4.877928 13.489040 0.112819 2.302500 6.402473 0.000000 0.000000 0.000000 -3.405675 0.396473 -24.851626 15.250097 -24.493298 3.328999 16.050994 5.642253 -24.855891 0.000000 0.000000 0.000000 -7.125000 0.000000 0.000000 -14.423784 55.131064 3.643860 0.000000 0.000000 0.000000 -3.331847 1.031287 9.953519 -16.738403 -26.511637 -3.969862 -26.502947 -5.117572 -11.230281 0.000000 0.000000 0.000000 7.125000 0.000000 0.000000 0.435201 17.470382 0.284570
3.730439 18.164431 2.855208 -53.272916 -85.746746 59.329441 0.000000 0.000000 0.000000 -16.800692 -8.779156 -14.282812 1.902521 8.659904 24.737255 0.772145 -1.810859 -16.087134 0.096063 -1.978095 -5.445893 0.000000 0.000000 0.000000 27.901915 8.837548 -15.735896 -3.007089 -10.706432 31.296204 -1.598494 -4.938788 -26.096689 -0.217979 -3.004405 8.291105 -0.110935 1.872660 -0.365612 4.008293 2.428168 0.352538 4.199886 1.186803 0.387692 0.873525 4.303526 -13.802618 -2.552348 6.061591 14.204050 -0.370425 2.730905 6.708093 0.000000 0.000000 0.000000 -3.078154 0.347952 -22.933807 14.383462 -23.280288 2.978003 15.663476 7.536759 -25.350492 0.000000 0.000000 0.000000 -7.125000 0.000000 0.000000 -15.073631 55.539077 3.964276 0.000000 0.000000 0.000000 -2.971126 1.672561 12.167546 -17.006580 -26.866364 -4.090292 -26.431900 -5.979541 -11.274111 0.000000 0.000000 0.000000 7.125000 0.000000 0.000000 0.487862 17.429415 0.319204
3.692355 18.162301 2.881554 -69.684510 -86.644346 75.296927 0.000000 0.000000 0.000000 -17.405208 -8.482764 -13.594269 1.948988 8.758919 25.044143 0.814553 -0.986650 -16.749431 0.039158 -1.150510 -3.164415 0.000000 0.000000 0.000000 27.459514 7.905274 -15.425839 -2.998560 -10.692715 31.250452 -1.590408 -3.752529 -25.422914 -0.076485 -1.784122 4.909361 0.142502 2.089989 -0.387670 3.437700 2.729092 0.380239 3.468066 1.342983 0.445886 0.885740 4.893428 -14.465463 -3.312190 7.008155 14.661988 -0.497663 3.098824 7.017521 0.000000 0.000000 0.000000 -2.388217 0.358784 -21.782557 14.447463 -23.370717 3.003307 15.748365 6.965758 -25.185722 0.000000 0.000000 0.000000 -7.125000 0.000000 0.000000 -14.900803 55.394862 3.864560 0.000000 0.000000 0.000000 -2.049053 1.841916 11.958296 -16.583286 -26.305147 -3.900866 -26.220364 -5.475911 -11.704326 0.000000 0.000000 0.000000 7.125000 0.000000 0.000000 0.664057 16.976857 0.441298
3.674736 18.147507 2.882064 -74.116416 -87.156715 78.888439 0.000000 0.000000 0.000000 -18.057947 -8.591197 -12.415282 1.941985 8.744220 24.998473 0.816826 0.052366 -17.103765 0.100216 -2.031947 -5.594239 0.000000 0.000000 0.000000 27.270976 8.288443 -14.517209 -3.066909 -10.802560 31.616975 -1.431052 -4.969310 -24.870180 -0.061868 -1.605278 4.415887 -0.057193 2.209819 0.260749 3.081042 2.906434 0.550537 3.189124 1.435057 0.255154 0.865221 5.051396 -14.641585 -3.737925 7.305701 14.754846 -0.593958 3.194858 7.101861 0.000000 0.000000 0.000000 -1.966583 0.355330 -22.332019 14.645278 -23.649620 3.082243 16.853281 6.452171 -25.544368 0.000000 0.000000 0.000000 -7.125000 0.000000 0.000000 -13.958637 55.967681 3.808590 0.000000 0.000000 0.000000 -1.891703 2.041548 11.687310 -16.009428 -25.533415 -3.650070 -26.637815 -4.428487 -11.012270 0.000000 0.000000 0.000000 7.125000 0.000000 0.000000 0.326390 17.697545 0.211688
3.663023 18.153353 2.883929 -64.761444 -86.249302 69.492909 0.000000 0.000000 0.000000 -17.252059 -9.290070 -12.574074 2.050024 8.969565 25.700227 0.879230 -0.793701 -17.472172 0.003347 0.372944 1.024694 0.000000 0.000000 0.000000 28.077007 7.821029 -14.316122 -2.982441 -10.666589 31.163448 -1.384644 -5.446067 -24.787461 -0.063793 -1.628470 4.479959 0.818315 2.012776 0.173437 3.217918 2.635152 0.488551 2.842251 1.298681 0.289010 0.809724 5.082167 -14.498321 -3.785406 7.373243 14.944937 -0.594714 3.215973 7.140552 0.000000 0.000000 0.000000 -2.303927 0.338391 -22.336704 14.696031 -23.720975 3.102644 16.335465 6.511128 -25.463492 0.000000 0.000000 0.000000 -7.125000 0.000000 0.000000 -14.447481 55.783687 3.880972 0.000000 0.000000 0.000000 -2.149096 2.250738 10.592766 -15.424915 -24.734705 -3.401758 -26.680896 -4.230549 -11.587119 0.000000 0.000000 0.000000 7.125000 0.000000 0.000000 0.335283 17.056071 0.222352
3.670385 18.154636 2.861867 -53.311330 -86.671854 57.972383 0.000000 0.000000 0.000000 -17.942783 -8.774973 -12.443903 1.958809 8.779755 25.108677 0.851203 -1.504434 -16.990084 0.000355 0.072883 0.200291 0.000000 0.000000 0.000000 27.426035 7.934516 -14.445506 -3.072633 -10.811672 31.647356 -1.420327 -5.737532 -25.231661 -0.092361 -1.959570 5.393907 -0.125607 1.965385 0.341320 3.050685 2.583016 0.545253 3.194548 1.273831 0.221084 0.645797 5.109675 -14.168769 -3.250222 7.349176 14.941305 -0.408115 3.250021 7.052980 0.000000 0.000000 0.000000 -2.541553 0.844557 -23.550654 15.397096 -24.696362 3.390162 15.988144 5.262644 -25.578467 0.000000 0.000000 0.000000 -7.125000 0.000000 0.000000 -14.863716 55.826534 4.011947 0.000000 0.000000 0.000000 -2.568070 2.500771 10.415246 -15.156978 -24.364382 -3.290456 -26.192041 -3.854995 -11.181697 0.000000 0.000000 0.000000 7.125000 0.000000 0.000000 0.649527 17.556848 0.423382
3.669793 18.142887 2.838156 -52.840199 -86.623591 57.713297 0.000000 0.000000 0.000000 -17.791322 -8.389664 -12.937825 1.972248 8.807991 25.196657 0.869948 -1.399058 -17.208543 0.077076 -1.786553 -4.916074 0.000000 0.000000 0.000000 27.519629 8.114050 -14.637286 -3.087272 -10.835052 31.725446 -1.446002 -5.622933 -25.357648 -0.112783 -2.165039 5.961959 -0.263231 1.980118 0.282912 3.132554 2.598940 0.609364 3.359964 1.279533 0.308688 0.582312 5.179663 -13.850262 -3.355867 7.472891 14.976935 -0.427010 3.298354 7.014158 0.000000 0.000000 0.000000 -2.927552 1.100817 -23.508534 15.410635 -24.714940 3.395760 15.835201 5.269766 -25.404045 0.000000 0.000000 0.000000 -7.125000 0.000000 0.000000 -14.927022 55.625457 3.956010 0.000000 0.000000 0.000000 -2.689924 2.450043 10.334579 -15.156383 -24.363582 -3.290187 -26.506107 -3.883670 -11.193156 0.000000 0.000000 0.000000 7.125000 0.000000 0.000000 0.430607 17.511185 0.281090
3.656729 18.139697 2.818652 -52.178697 -86.517896 57.108809 0.000000 0.000000 0.000000 -17.643362 -8.212939 -13.127871 1.995194 8.856117 25.346176 0.863774 -1.953672 -17.010705 0.010231 -0.552359 -1.518010 0.000000 0.000000 0.000000 27.692707 8.355401 -14.612094 -3.104176 -10.861767 31.815223 -1.435694 -5.908435 -25.449074 -0.121422 -2.246196 6.186584 -0.079701 2.030452 0.338803 3.148313 2.663169 0.685619 3.272503 1.310644 0.359264 0.480392 5.306270 -13.448869 -3.229728 7.646704 15.220905 -0.360509 3.385385 7.017852 0.000000 0.000000 0.000000 -2.857651 1.448312 -23.732155 15.132045 -24.329733 3.280168 15.768257 5.102628 -25.213899 0.000000 0.000000 0.000000 -7.125000 0.000000 0.000000 -14.895214 55.426364 3.874510 0.000000 0.000000 0.000000 -2.578761 2.628754 10.860839 -15.502558 -24.841538 -3.434331 -26.546466 -4.320195 -11.328634 0.000000 0.000000 0.000000 7.125000 0.000000 0.000000 0.411364 17.356801 0.269933
3.624335 18.139139 2.790412 -48.632399 -86.577218 53.669516 0.000000 0.000000 0.000000 -17.742950 -8.343662 -13.074961 1.993112 8.851796 25.332778 0.856495 -1.988739 -16.928096 0.005565 -0.462376 -1.270592 0.000000 0.000000 0.000000 27.628868 8.515422 -14.569600 -3.113299 -10.876276 31.863688 -1.449030 -6.130314 -25.682555 -0.131430 -2.336661 6.436940 -0.170254 2.128551 0.388444 3.104075 2.796365 0.685034 3.275081 1.377967 0.321064 0.351406 5.423153 -12.840145 -3.125394 7.810130 15.432870 -0.304708 3.466529 6.974409 0.000000 0.000000 0.000000 -2.759148 1.725628 -23.277196 14.682919 -23.702625 3.097378 15.823832 5.777575 -25.522662 0.000000 0.000000 0.000000 -7.125000 0.000000 0.000000 -15.001734 55.739132 4.018274 0.000000 0.000000 0.000000 -2.347342 2.797050 11.107985 -15.839505 -25.302574 -3.577116 -27.043041 -4.737532 -10.813423 0.000000 0.000000 0.000000 7.125000 0.000000 0.000000 0.028781 17.875994 0.018593
